<svg width="45" height="45" viewBox="0 0 45 45" fill="none" xmlns="http://www.w3.org/2000/svg">
<g clip-path="url(#clip0_5778_10)">
<path d="M31.4492 0.0225197C31.3535 -0.0843553 27.9082 0.0647073 24.9101 3.31877C21.912 6.57002 22.3732 10.2994 22.4407 10.395C22.5082 10.4906 26.7157 10.6397 29.4017 6.85689C32.0876 3.07408 31.5448 0.132207 31.4492 0.0225197ZM40.7698 33.0216C40.6348 32.7516 34.2307 29.551 34.827 23.3972C35.4232 17.2406 39.5379 15.5531 39.6026 15.3703C39.6673 15.1875 37.9235 13.1485 36.0757 12.1163C34.719 11.3885 33.2175 10.9716 31.6798 10.8956C31.376 10.8872 30.3214 10.6285 28.1529 11.2219C26.7242 11.6128 23.5039 12.8785 22.6179 12.9291C21.7292 12.9797 19.0854 11.461 16.242 11.0588C14.4223 10.7072 12.4929 11.4272 11.112 11.9813C9.73385 12.5325 7.1126 14.1019 5.27885 18.2728C3.4451 22.441 4.40417 29.0447 5.09042 31.0978C5.77667 33.1481 6.84823 36.5091 8.67073 38.9616C10.2907 41.7291 12.4395 43.65 13.3367 44.3025C14.2339 44.955 16.7651 45.3881 18.5201 44.491C19.932 43.6247 22.4801 43.1269 23.487 43.1635C24.491 43.2 26.471 43.5966 28.4989 44.6794C30.1048 45.2335 31.6235 45.0028 33.1451 44.3841C34.6667 43.7625 36.8689 41.4056 39.4395 36.6272C40.4154 34.4053 40.8598 33.2044 40.7698 33.0216Z" fill="#0E1730"/>
<path d="M31.4492 0.0225197C31.3535 -0.0843553 27.9082 0.0647073 24.9101 3.31877C21.912 6.57002 22.3732 10.2994 22.4407 10.395C22.5082 10.4906 26.7157 10.6397 29.4017 6.85689C32.0876 3.07408 31.5448 0.132207 31.4492 0.0225197ZM40.7698 33.0216C40.6348 32.7516 34.2307 29.551 34.827 23.3972C35.4232 17.2406 39.5379 15.5531 39.6026 15.3703C39.6673 15.1875 37.9235 13.1485 36.0757 12.1163C34.719 11.3885 33.2175 10.9716 31.6798 10.8956C31.376 10.8872 30.3214 10.6285 28.1529 11.2219C26.7242 11.6128 23.5039 12.8785 22.6179 12.9291C21.7292 12.9797 19.0854 11.461 16.242 11.0588C14.4223 10.7072 12.4929 11.4272 11.112 11.9813C9.73385 12.5325 7.1126 14.1019 5.27885 18.2728C3.4451 22.441 4.40417 29.0447 5.09042 31.0978C5.77667 33.1481 6.84823 36.5091 8.67073 38.9616C10.2907 41.7291 12.4395 43.65 13.3367 44.3025C14.2339 44.955 16.7651 45.3881 18.5201 44.491C19.932 43.6247 22.4801 43.1269 23.487 43.1635C24.491 43.2 26.471 43.5966 28.4989 44.6794C30.1048 45.2335 31.6235 45.0028 33.1451 44.3841C34.6667 43.7625 36.8689 41.4056 39.4395 36.6272C40.4154 34.4053 40.8598 33.2044 40.7698 33.0216Z" fill="#0E1730"/>
</g>
<defs>
<clipPath id="clip0_5778_10">
<rect width="45" height="45" rx="20" fill="white"/>
</clipPath>
</defs>
</svg>
