<svg width="164" height="51" viewBox="0 0 164 51" fill="none" xmlns="http://www.w3.org/2000/svg">
<g clip-path="url(#clip0_5799_1218)">
<mask id="mask0_5799_1218" style="mask-type:luminance" maskUnits="userSpaceOnUse" x="0" y="5" width="18" height="31">
<path d="M0.451822 35.1354C-0.254855 33.5458 0.0926914 31.1239 0.0926914 25.436C0.0926914 13.2742 -1.50892 16.0429 9.0449 9.96202C9.55174 9.67011 15.6367 6.16433 16.0827 5.89844L12.8969 20.2481L16.5635 21.2019C17.247 21.4707 17.583 21.8406 16.3231 22.7481L0.451822 35.1354Z" fill="white"/>
</mask>
<g mask="url(#mask0_5799_1218)">
<path d="M17.5831 5.89844H-1.50586V35.1354H17.5831V5.89844Z" fill="#D30000"/>
</g>
<mask id="mask1_5799_1218" style="mask-type:luminance" maskUnits="userSpaceOnUse" x="0" y="5" width="17" height="31">
<path d="M0.451822 35.1354C-0.254855 33.5458 0.0926914 31.1239 0.0926914 25.436C0.0926914 13.2742 -1.50892 16.0429 9.0449 9.96202C9.55174 9.67011 15.6367 6.16433 16.0827 5.89844C5.66501 25.3898 0.451822 35.1354 0.451822 35.1354Z" fill="white"/>
</mask>
<g mask="url(#mask1_5799_1218)">
<path d="M16.0858 5.89844H-1.50586V35.1354H16.0858V5.89844Z" fill="#D30000"/>
</g>
<mask id="mask2_5799_1218" style="mask-type:luminance" maskUnits="userSpaceOnUse" x="18" y="5" width="18" height="29">
<path d="M18.3555 5.5C20.0874 5.68208 22.0163 7.19653 26.9514 10.0405C37.5053 16.1214 35.9037 13.3555 35.9037 25.5145C35.9037 26.1012 35.9037 33.1098 35.9095 33.6301L25.0515 23.6965L22.3899 26.3873C21.8136 26.8439 21.327 26.948 21.1677 25.4075L18.3555 5.5Z" fill="white"/>
</mask>
<g mask="url(#mask2_5799_1218)">
<path d="M37.5053 5.5H18.3555V33.6272H37.5053V5.5Z" fill="#D30000"/>
</g>
<mask id="mask3_5799_1218" style="mask-type:luminance" maskUnits="userSpaceOnUse" x="18" y="5" width="18" height="29">
<path d="M18.3555 5.5C20.0874 5.68208 22.0163 7.19653 26.9514 10.0405C37.5053 16.1214 35.9037 13.3555 35.9037 25.5145C35.9037 26.1012 35.9037 33.1098 35.9095 33.6301C35.9123 33.6272 30.062 24.2514 18.3555 5.5Z" fill="white"/>
</mask>
<g mask="url(#mask3_5799_1218)">
<path d="M37.5053 5.5H18.3555V33.6272H37.5053V5.5Z" fill="#D30000"/>
</g>
<mask id="mask4_5799_1218" style="mask-type:luminance" maskUnits="userSpaceOnUse" x="1" y="27" width="35" height="19">
<path d="M35.1223 35.7905C34.097 37.198 31.8206 38.1055 26.8826 40.9495C16.3287 47.0304 19.532 47.0304 8.97814 40.9495C8.4713 40.6576 2.38635 37.1518 1.93164 36.8974L15.9812 32.4784L14.9762 28.831C14.869 28.1055 15.0197 27.6315 16.4388 28.2645L35.1223 35.7905Z" fill="white"/>
</mask>
<g mask="url(#mask4_5799_1218)">
<path d="M35.1243 27.6328H1.93359V47.0288H35.1243V27.6328Z" fill="#D30000"/>
</g>
<mask id="mask5_5799_1218" style="mask-type:luminance" maskUnits="userSpaceOnUse" x="1" y="35" width="35" height="11">
<path d="M35.1223 35.793C34.097 37.2005 31.8206 38.108 26.8826 40.9519C16.3287 47.0329 19.532 47.0329 8.97814 40.9519C8.4713 40.66 2.38635 37.1542 1.93164 36.8999L35.1223 35.793Z" fill="white"/>
</mask>
<g mask="url(#mask5_5799_1218)">
<path d="M35.1243 35.793H1.93359V47.0329H35.1243V35.793Z" fill="#D30000"/>
</g>
</g>
<path d="M56.62 36.6C54.76 36.6 53.12 36.15 51.7 35.25C50.3 34.35 49.22 33.13 48.46 31.59C47.7 30.03 47.32 28.3 47.32 26.4C47.32 24.44 47.73 22.63 48.55 20.97C49.39 19.31 50.52 18 51.94 17.04C53.38 16.08 54.94 15.6 56.62 15.6C58.22 15.6 59.62 15.83 60.82 16.29C62.04 16.73 62.94 17.3 63.52 18C63.86 18.42 64.07 18.98 64.15 19.68C64.23 20.36 64.27 21.3 64.27 22.5H63.67C63.29 20.56 62.59 19.13 61.57 18.21C60.55 17.27 59.2 16.8 57.52 16.8C55.36 16.8 53.62 17.56 52.3 19.08C50.98 20.6 50.32 23.04 50.32 26.4C50.32 27.98 50.57 29.45 51.07 30.81C51.59 32.17 52.39 33.28 53.47 34.14C54.55 34.98 55.9 35.4 57.52 35.4C58.98 35.4 60.25 35.05 61.33 34.35C62.43 33.65 63.41 32.6 64.27 31.2L64.87 31.65C63.95 33.45 62.81 34.73 61.45 35.49C60.11 36.23 58.5 36.6 56.62 36.6ZM73.9012 36.3C72.5412 36.3 71.3612 35.98 70.3612 35.34C69.3612 34.68 68.6012 33.79 68.0812 32.67C67.5612 31.55 67.3012 30.31 67.3012 28.95C67.3012 27.59 67.5612 26.35 68.0812 25.23C68.6012 24.11 69.3612 23.23 70.3612 22.59C71.3612 21.93 72.5412 21.6 73.9012 21.6C75.2612 21.6 76.4412 21.93 77.4412 22.59C78.4412 23.23 79.2012 24.11 79.7212 25.23C80.2412 26.35 80.5012 27.59 80.5012 28.95C80.5012 30.31 80.2412 31.55 79.7212 32.67C79.2012 33.79 78.4412 34.68 77.4412 35.34C76.4412 35.98 75.2612 36.3 73.9012 36.3ZM73.9012 35.1C74.6412 35.1 75.2912 34.83 75.8512 34.29C76.4312 33.75 76.8712 33.01 77.1712 32.07C77.4912 31.13 77.6512 30.09 77.6512 28.95C77.6512 27.81 77.4912 26.77 77.1712 25.83C76.8712 24.89 76.4312 24.15 75.8512 23.61C75.2912 23.07 74.6412 22.8 73.9012 22.8C73.1612 22.8 72.5012 23.07 71.9212 23.61C71.3612 24.15 70.9212 24.89 70.6012 25.83C70.3012 26.77 70.1512 27.81 70.1512 28.95C70.1512 30.09 70.3012 31.13 70.6012 32.07C70.9212 33.01 71.3612 33.75 71.9212 34.29C72.5012 34.83 73.1612 35.1 73.9012 35.1ZM89.8094 36.3C88.4494 36.3 87.2694 35.98 86.2694 35.34C85.2694 34.68 84.5094 33.79 83.9894 32.67C83.4694 31.55 83.2094 30.31 83.2094 28.95C83.2094 27.59 83.4694 26.35 83.9894 25.23C84.5094 24.11 85.2694 23.23 86.2694 22.59C87.2694 21.93 88.4494 21.6 89.8094 21.6C91.1694 21.6 92.3494 21.93 93.3494 22.59C94.3494 23.23 95.1094 24.11 95.6294 25.23C96.1494 26.35 96.4094 27.59 96.4094 28.95C96.4094 30.31 96.1494 31.55 95.6294 32.67C95.1094 33.79 94.3494 34.68 93.3494 35.34C92.3494 35.98 91.1694 36.3 89.8094 36.3ZM89.8094 35.1C90.5494 35.1 91.1994 34.83 91.7594 34.29C92.3394 33.75 92.7794 33.01 93.0794 32.07C93.3994 31.13 93.5594 30.09 93.5594 28.95C93.5594 27.81 93.3994 26.77 93.0794 25.83C92.7794 24.89 92.3394 24.15 91.7594 23.61C91.1994 23.07 90.5494 22.8 89.8094 22.8C89.0694 22.8 88.4094 23.07 87.8294 23.61C87.2694 24.15 86.8294 24.89 86.5094 25.83C86.2094 26.77 86.0594 27.81 86.0594 28.95C86.0594 30.09 86.2094 31.13 86.5094 32.07C86.8294 33.01 87.2694 33.75 87.8294 34.29C88.4094 34.83 89.0694 35.1 89.8094 35.1ZM110.578 36.3C108.878 36.3 107.428 35.5 106.228 33.9L102.628 29.1V36H99.9276V19.8C99.9276 18.78 99.7876 18.03 99.5076 17.55C99.2276 17.05 98.6676 16.8 97.8276 16.8H97.2276V16.2H99.9276C100.668 16.2 101.218 16.3 101.578 16.5C101.958 16.68 102.228 17.02 102.388 17.52C102.548 18.02 102.628 18.78 102.628 19.8V28.65L106.378 23.85C106.898 23.21 107.448 22.73 108.028 22.41C108.608 22.07 109.358 21.9 110.278 21.9H111.178V22.65C110.638 22.65 110.118 22.76 109.618 22.98C109.118 23.2 108.688 23.54 108.328 24L105.028 28.2L108.778 33C109.358 33.76 109.898 34.33 110.398 34.71C110.918 35.09 111.478 35.33 112.078 35.43V36C111.638 36.2 111.138 36.3 110.578 36.3ZM115.508 19.8C115.508 18.78 115.368 18.03 115.088 17.55C114.808 17.05 114.248 16.8 113.408 16.8H112.808V16.2H120.608C122.788 16.2 124.678 16.56 126.278 17.28C127.898 18 128.708 19.39 128.708 21.45C128.708 22.39 128.388 23.24 127.748 24C127.108 24.76 126.128 25.36 124.808 25.8C126.648 26.1 127.928 26.65 128.648 27.45C129.388 28.23 129.758 29.28 129.758 30.6C129.758 32.62 128.958 34.03 127.358 34.83C125.778 35.61 123.828 36 121.508 36H115.508V19.8ZM121.058 25.35C121.878 25.35 122.648 25.2 123.368 24.9C124.108 24.58 124.708 24.12 125.168 23.52C125.628 22.9 125.858 22.16 125.858 21.3C125.858 20.4 125.588 19.65 125.048 19.05C124.508 18.43 123.818 17.98 122.978 17.7C122.158 17.4 121.318 17.25 120.458 17.25C119.758 17.25 119.008 17.35 118.208 17.55V25.35H121.058ZM121.058 34.95C122.878 34.95 124.278 34.59 125.258 33.87C126.258 33.15 126.758 32.11 126.758 30.75C126.758 29.39 126.268 28.35 125.288 27.63C124.328 26.91 122.918 26.55 121.058 26.55H118.208V34.53C119.168 34.81 120.118 34.95 121.058 34.95ZM134.74 20.1C134.28 20.1 133.88 19.91 133.54 19.53C133.22 19.15 133.06 18.7 133.06 18.18C133.06 17.76 133.18 17.43 133.42 17.19C133.68 16.95 134.02 16.83 134.44 16.83C134.9 16.83 135.29 17.02 135.61 17.4C135.95 17.78 136.12 18.23 136.12 18.75C136.12 19.17 135.99 19.5 135.73 19.74C135.49 19.98 135.16 20.1 134.74 20.1ZM133.6 25.5C133.6 24.48 133.46 23.73 133.18 23.25C132.9 22.75 132.34 22.5 131.5 22.5H130.9V21.9H133.6C134.34 21.9 134.89 22 135.25 22.2C135.63 22.38 135.9 22.72 136.06 23.22C136.22 23.72 136.3 24.48 136.3 25.5V36H133.6V25.5ZM144.703 36.3C143.583 36.3 142.703 35.98 142.063 35.34C141.423 34.7 141.103 33.72 141.103 32.4V23.1H139.003V21.9H141.103V19.2L142.603 17.4H143.803V21.9H147.403V23.1H143.803V32.4C143.803 34.2 144.503 35.1 145.903 35.1C146.383 35.1 146.783 35.05 147.103 34.95C147.443 34.85 147.793 34.7 148.153 34.5L148.453 35.1C147.993 35.44 147.483 35.73 146.923 35.97C146.363 36.19 145.623 36.3 144.703 36.3ZM156.16 36.3C154.8 36.3 153.65 35.98 152.71 35.34C151.77 34.68 151.06 33.8 150.58 32.7C150.1 31.58 149.86 30.33 149.86 28.95C149.86 27.59 150.1 26.35 150.58 25.23C151.06 24.11 151.75 23.23 152.65 22.59C153.57 21.93 154.64 21.6 155.86 21.6C157.88 21.6 159.38 22.17 160.36 23.31C161.36 24.43 161.86 26.06 161.86 28.2L161.8 29.4H152.71C152.71 31.08 153.07 32.45 153.79 33.51C154.51 34.57 155.5 35.1 156.76 35.1C157.7 35.1 158.49 34.9 159.13 34.5C159.79 34.1 160.4 33.5 160.96 32.7L161.56 33.15C160.9 34.25 160.13 35.05 159.25 35.55C158.37 36.05 157.34 36.3 156.16 36.3ZM159.01 28.2C159.01 26.44 158.75 25.1 158.23 24.18C157.71 23.26 156.92 22.8 155.86 22.8C155.26 22.8 154.72 23.04 154.24 23.52C153.76 23.98 153.38 24.62 153.1 25.44C152.84 26.26 152.71 27.18 152.71 28.2H159.01Z" fill="black"/>
<defs>
<clipPath id="clip0_5799_1218">
<rect width="36" height="40" fill="white" transform="translate(0 5.5)"/>
</clipPath>
</defs>
</svg>
