<svg width="36" height="41" viewBox="0 0 36 41" fill="none" xmlns="http://www.w3.org/2000/svg">
<g clip-path="url(#clip0_5799_1219)">
<mask id="mask0_5799_1219" style="mask-type:luminance" maskUnits="userSpaceOnUse" x="0" y="0" width="18" height="31">
<path d="M0.451822 30.1354C-0.254855 28.5458 0.0926914 26.1239 0.0926914 20.436C0.0926914 8.27416 -1.50892 11.0429 9.0449 4.96202C9.55174 4.67011 15.6367 1.16433 16.0827 0.898438L12.8969 15.2481L16.5635 16.2019C17.247 16.4707 17.583 16.8406 16.3231 17.7481L0.451822 30.1354Z" fill="white"/>
</mask>
<g mask="url(#mask0_5799_1219)">
<path d="M17.5831 0.898438H-1.50586V30.1354H17.5831V0.898438Z" fill="#D30000"/>
</g>
<mask id="mask1_5799_1219" style="mask-type:luminance" maskUnits="userSpaceOnUse" x="0" y="0" width="17" height="31">
<path d="M0.451822 30.1354C-0.254855 28.5458 0.0926914 26.1239 0.0926914 20.436C0.0926914 8.27416 -1.50892 11.0429 9.0449 4.96202C9.55174 4.67011 15.6367 1.16433 16.0827 0.898438C5.66501 20.3898 0.451822 30.1354 0.451822 30.1354Z" fill="white"/>
</mask>
<g mask="url(#mask1_5799_1219)">
<path d="M16.0858 0.898438H-1.50586V30.1354H16.0858V0.898438Z" fill="#D30000"/>
</g>
<mask id="mask2_5799_1219" style="mask-type:luminance" maskUnits="userSpaceOnUse" x="18" y="0" width="18" height="29">
<path d="M18.3555 0.5C20.0874 0.682081 22.0163 2.19653 26.9514 5.04046C37.5053 11.1214 35.9037 8.35549 35.9037 20.5145C35.9037 21.1012 35.9037 28.1098 35.9095 28.6301L25.0515 18.6965L22.3899 21.3873C21.8136 21.8439 21.327 21.948 21.1677 20.4075L18.3555 0.5Z" fill="white"/>
</mask>
<g mask="url(#mask2_5799_1219)">
<path d="M37.5053 0.5H18.3555V28.6272H37.5053V0.5Z" fill="#D30000"/>
</g>
<mask id="mask3_5799_1219" style="mask-type:luminance" maskUnits="userSpaceOnUse" x="18" y="0" width="18" height="29">
<path d="M18.3555 0.5C20.0874 0.682081 22.0163 2.19653 26.9514 5.04046C37.5053 11.1214 35.9037 8.35549 35.9037 20.5145C35.9037 21.1012 35.9037 28.1098 35.9095 28.6301C35.9123 28.6272 30.062 19.2514 18.3555 0.5Z" fill="white"/>
</mask>
<g mask="url(#mask3_5799_1219)">
<path d="M37.5053 0.5H18.3555V28.6272H37.5053V0.5Z" fill="#D30000"/>
</g>
<mask id="mask4_5799_1219" style="mask-type:luminance" maskUnits="userSpaceOnUse" x="1" y="22" width="35" height="19">
<path d="M35.1223 30.7905C34.097 32.198 31.8206 33.1055 26.8826 35.9495C16.3287 42.0304 19.532 42.0304 8.97814 35.9495C8.4713 35.6576 2.38635 32.1518 1.93164 31.8974L15.9812 27.4784L14.9762 23.831C14.869 23.1055 15.0197 22.6315 16.4388 23.2645L35.1223 30.7905Z" fill="white"/>
</mask>
<g mask="url(#mask4_5799_1219)">
<path d="M35.1243 22.6328H1.93359V42.0288H35.1243V22.6328Z" fill="#D30000"/>
</g>
<mask id="mask5_5799_1219" style="mask-type:luminance" maskUnits="userSpaceOnUse" x="1" y="30" width="35" height="11">
<path d="M35.1223 30.793C34.097 32.2005 31.8206 33.108 26.8826 35.9519C16.3287 42.0329 19.532 42.0329 8.97814 35.9519C8.4713 35.66 2.38635 32.1542 1.93164 31.8999L35.1223 30.793Z" fill="white"/>
</mask>
<g mask="url(#mask5_5799_1219)">
<path d="M35.1243 30.793H1.93359V42.0329H35.1243V30.793Z" fill="#D30000"/>
</g>
</g>
<defs>
<clipPath id="clip0_5799_1219">
<rect width="36" height="40" fill="white" transform="translate(0 0.5)"/>
</clipPath>
</defs>
</svg>
