<svg width="45" height="45" viewBox="0 0 45 45" fill="none" xmlns="http://www.w3.org/2000/svg">
<path d="M4.21875 5.22888V39.7699C4.21898 39.8448 4.24133 39.918 4.283 39.9803C4.32467 40.0426 4.3838 40.0912 4.45298 40.12C4.52215 40.1488 4.5983 40.1566 4.67186 40.1423C4.74543 40.128 4.81314 40.0923 4.8665 40.0397L22.8516 22.5003L4.8665 4.95905C4.81314 4.90644 4.74543 4.87075 4.67186 4.85646C4.5983 4.84218 4.52215 4.84993 4.45298 4.87874C4.3838 4.90756 4.32467 4.95616 4.283 5.01845C4.24133 5.08073 4.21898 5.15394 4.21875 5.22888ZM30.3926 15.2932L7.8416 2.86901L7.82754 2.8611C7.43906 2.65016 7.06992 3.17575 7.38809 3.48161L25.0655 20.3847L30.3926 15.2932ZM7.38984 41.5189C7.06992 41.8248 7.43906 42.3504 7.8293 42.1394L7.84336 42.1315L30.3926 29.7073L25.0655 24.614L7.38984 41.5189ZM39.4963 20.303L33.1989 16.8348L27.2777 22.5003L33.1989 28.1631L39.4963 24.6975C41.2093 23.7509 41.2093 21.2496 39.4963 20.303Z" fill="#0E1730"/>
</svg>
